<svg width="49" height="48" viewBox="0 0 49 48" fill="none" xmlns="http://www.w3.org/2000/svg">
<rect x="0.5" width="48" height="48" rx="24" fill="#0B0D0F"/>
<path d="M25.2827 17.5106C25.1547 17.5399 25.0396 17.5572 24.9403 17.5669C24.9465 17.3964 24.9646 17.1857 25.0067 16.9508C25.1188 16.3262 25.3966 15.5507 26.0542 14.8932C26.7397 14.2076 27.4521 13.8594 27.9881 13.682C28.1205 13.6382 28.242 13.6048 28.3495 13.5795C28.3416 13.7537 28.3223 13.9625 28.2817 14.1925C28.1634 14.8638 27.8686 15.6947 27.1697 16.3936C26.4467 17.1166 25.7644 17.4004 25.2827 17.5106Z" fill="white" stroke="white"/>
<path d="M24.6245 19.3396C23.5188 19.332 22.8396 18.3773 20.9566 18.3773C19.2622 18.3773 17.5637 19.4705 16.8415 20.5283C16.1226 21.5811 15.5 22.7358 15.5 25.0792C15.5 27.4226 16.6283 31.4528 19.4028 34.1811C19.878 34.6483 20.507 34.9995 21.2245 35.0213C22.5151 35.0604 23.3076 34.0943 24.9377 34.0943C26.5679 34.0943 27.0585 35.0213 28.5302 35.0213C29.1994 35.0213 29.9626 34.7165 30.7038 33.9283C31.6547 32.917 32.8347 30.9909 33.4358 29.1434C33.4358 29.1434 30.4258 27.9809 30.4622 24.6301C30.4924 21.8528 32.8509 20.4868 32.8509 20.4868C32.8509 20.4868 31.4735 18.2905 28.5453 18.2905C26.5226 18.3057 25.6169 19.3464 24.6245 19.3396Z" fill="white"/>
</svg>
