<svg width="49" height="48" viewBox="0 0 49 48" fill="none" xmlns="http://www.w3.org/2000/svg">
<rect x="0.5" width="48" height="48" rx="24" fill="#F4F6F7"/>
<g clip-path="url(#clip0_744_58188)">
<path d="M36.2135 24.2763C36.2135 23.4605 36.1474 22.6404 36.0063 21.8379H24.6875V26.4589H31.1692C30.9003 27.9492 30.036 29.2676 28.7705 30.1054V33.1037H32.6375C34.9083 31.0137 36.2135 27.9272 36.2135 24.2763Z" fill="#4285F4"/>
<path d="M24.6883 36.0008C27.9248 36.0008 30.6542 34.9382 32.6428 33.1039L28.7758 30.1055C27.6999 30.8375 26.311 31.252 24.6928 31.252C21.5621 31.252 18.9077 29.1399 17.9553 26.3003H13.9648V29.3912C16.002 33.4434 20.1511 36.0008 24.6883 36.0008Z" fill="#34A853"/>
<path d="M17.95 26.3005C17.4474 24.8101 17.4474 23.1963 17.95 21.7059V18.615H13.964C12.262 22.0058 12.262 26.0006 13.964 29.3914L17.95 26.3005Z" fill="#FBBC04"/>
<path d="M24.6883 16.7497C26.3992 16.7232 28.0527 17.367 29.2917 18.5487L32.7177 15.1226C30.5483 13.0855 27.6691 11.9655 24.6883 12.0008C20.1511 12.0008 16.002 14.5582 13.9648 18.6148L17.9509 21.7058C18.8989 18.8617 21.5577 16.7497 24.6883 16.7497Z" fill="#EA4335"/>
</g>
<defs>
<clipPath id="clip0_744_58188">
<rect width="24" height="24" fill="white" transform="translate(12.5 12)"/>
</clipPath>
</defs>
</svg>
